<?xml version="1.0" standalone="no"?>
<!DOCTYPE svg PUBLIC "-//W3C//DTD SVG 20010904//EN"
 "http://www.w3.org/TR/2001/REC-SVG-20010904/DTD/svg10.dtd">
<svg version="1.0" xmlns="http://www.w3.org/2000/svg"
 width="475.000000pt" height="475.000000pt" viewBox="0 0 475.000000 475.000000"
 preserveAspectRatio="xMidYMid meet">

<g transform="translate(0.000000,475.000000) scale(0.100000,-0.100000)"
fill="#000000" stroke="none">
<path d="M2472 4513 l-22 -18 20 -75 c11 -41 20 -84 20 -95 0 -40 -21 -95 -57
-146 -46 -68 -113 -201 -113 -225 0 -11 11 8 25 40 13 33 39 82 56 110 99 157
110 195 83 303 -24 99 -18 109 67 105 80 -3 129 -18 130 -40 5 -66 17 -127 36
-187 21 -70 74 -185 85 -185 5 0 2 11 -7 23 -16 25 -75 180 -75 197 0 31 177
-17 257 -69 l48 -31 -37 31 -37 31 49 47 c27 25 51 57 55 71 4 18 0 15 -14
-12 -23 -41 -63 -76 -97 -84 -13 -3 -55 3 -93 15 -38 12 -83 21 -100 21 -38 0
-51 22 -51 87 0 26 -4 54 -8 61 -11 16 -55 29 -134 37 -53 6 -67 4 -86 -12z"/>
<path d="M3063 4455 c-9 -24 1 -27 15 -5 8 13 8 20 2 20 -6 0 -13 -7 -17 -15z"/>
<path d="M3143 4432 c26 -15 50 -35 53 -44 3 -9 -2 -54 -11 -99 -20 -108 -19
-188 5 -283 11 -44 22 -82 25 -84 9 -10 5 23 -10 72 -19 62 -19 262 -1 331 9
31 10 56 5 67 -9 18 -88 68 -105 68 -5 0 12 -13 39 -28z"/>
<path d="M2311 3900 c-1 -45 37 -123 87 -180 l39 -44 -38 -49 c-46 -57 -69
-128 -69 -209 0 -32 -2 -58 -4 -58 -3 0 -26 14 -51 31 -25 17 -48 29 -51 27
-6 -7 103 -78 120 -78 7 0 29 6 48 14 31 13 38 13 75 -4 102 -45 164 -155 165
-291 0 -41 5 -83 11 -94 36 -69 141 -165 181 -165 11 0 37 16 57 36 71 69 149
61 149 -16 0 -68 36 -157 119 -295 45 -73 81 -137 81 -140 0 -4 -14 3 -31 15
-53 39 -125 60 -164 49 -66 -19 -97 -84 -111 -234 l-7 -80 -17 77 c-9 43 -20
81 -23 85 -10 10 -8 -16 8 -82 49 -200 -21 -494 -151 -643 -28 -31 -69 -63
-116 -87 -117 -61 -232 -132 -244 -152 -6 -10 -30 -54 -53 -98 -44 -83 -40
-81 20 14 l36 57 77 -4 c103 -6 266 21 395 65 77 26 106 32 115 23 6 -6 12
-57 14 -123 4 -103 2 -118 -22 -176 -14 -35 -39 -85 -56 -111 -16 -26 -30 -52
-30 -59 0 -7 -16 -27 -35 -45 -30 -29 -35 -40 -35 -79 0 -40 5 -52 38 -87 35
-35 44 -40 85 -40 26 0 61 7 80 16 32 15 36 15 83 -9 28 -14 69 -40 91 -59
153 -124 162 -128 314 -128 105 0 127 3 179 25 33 14 70 25 84 25 32 0 53 22
68 71 15 50 7 65 -53 99 -40 22 -57 25 -179 28 -158 4 -164 6 -289 126 -40 39
-69 62 -63 51 12 -24 110 -118 166 -160 38 -29 43 -30 160 -31 125 -1 184 -12
225 -40 20 -15 23 -23 18 -62 -6 -52 -26 -72 -73 -72 -31 0 -32 0 -27 44 4 36
1 48 -17 66 -20 20 -30 22 -101 18 -49 -2 -83 -8 -91 -17 -11 -12 -9 -13 12
-6 14 4 50 9 81 12 49 4 60 2 78 -16 42 -42 20 -125 -38 -141 -52 -14 -239
-12 -283 4 -20 7 -65 38 -100 69 -35 30 -95 73 -135 94 -56 30 -70 42 -63 53
41 65 -36 170 -124 170 -43 0 -48 22 -16 63 67 85 103 261 78 379 l-15 68 66
39 c100 59 244 213 287 306 59 127 64 306 14 447 -20 58 -31 80 -101 200 -22
36 -39 70 -39 75 0 4 38 -31 85 -77 254 -252 307 -487 172 -755 -46 -92 -102
-163 -195 -250 -74 -70 -75 -71 -78 -125 -1 -30 -8 -82 -14 -115 -8 -44 -8
-72 0 -105 6 -25 11 -52 12 -60 0 -27 19 -80 29 -80 5 0 2 15 -7 33 l-17 32
23 -20 c21 -19 20 -17 -5 30 -25 48 -26 54 -20 147 11 160 23 191 104 264 160
147 251 332 251 512 0 133 -39 242 -135 376 -41 58 -176 196 -222 227 -45 31
-145 237 -142 293 0 6 14 22 30 35 l30 24 27 -20 c15 -11 75 -46 134 -77 58
-31 124 -71 146 -89 54 -43 145 -154 211 -256 l53 -83 -40 -59 -40 -58 4 -98
c5 -120 8 -129 44 -148 42 -22 74 -18 109 11 40 33 42 80 6 122 -26 31 -33 66
-15 77 6 3 10 12 10 18 -1 7 -10 1 -21 -12 -16 -19 -18 -32 -13 -71 4 -30 2
-50 -5 -54 -6 -4 -11 -12 -11 -17 0 -19 22 3 35 35 l13 31 7 -26 c11 -44 2
-81 -26 -102 -24 -17 -31 -18 -63 -7 -46 15 -57 36 -49 97 3 29 0 66 -7 87
-11 34 -10 39 29 97 23 34 41 69 41 78 0 24 -110 187 -181 266 -74 84 -106
107 -224 169 -139 73 -176 99 -169 116 14 35 34 117 34 143 0 28 4 25 87 -53
71 -66 108 -92 198 -136 l110 -54 110 -146 c61 -80 140 -184 176 -232 36 -48
86 -105 111 -127 25 -22 63 -63 84 -90 21 -28 47 -58 59 -67 17 -13 24 -32 29
-82 8 -81 -13 -129 -60 -134 -36 -4 -73 30 -56 50 5 7 12 22 15 33 4 18 5 18
6 -2 0 -13 6 -23 12 -23 8 0 10 12 6 33 -7 42 -65 172 -73 164 -4 -3 3 -24 15
-47 27 -52 20 -123 -17 -162 -20 -22 -28 -25 -45 -17 -15 9 -18 8 -15 -3 3 -7
15 -14 27 -16 35 -5 6 -32 -35 -32 -57 0 -86 48 -59 100 17 33 35 40 35 13 0
-15 2 -16 10 -3 39 61 -33 202 -103 200 -7 -1 2 -7 19 -14 32 -14 84 -90 84
-123 0 -10 -13 -25 -29 -34 -67 -39 -37 -158 40 -159 30 0 79 34 79 56 0 19 6
18 30 -6 29 -29 67 -36 90 -15 11 10 20 24 20 32 0 7 10 23 22 35 14 14 18 23
10 26 -7 2 -12 23 -12 47 0 38 -6 51 -44 94 -24 27 -52 62 -61 78 -10 15 -41
48 -69 73 -54 47 -89 89 -166 195 -188 262 -255 338 -309 350 -69 15 -266 168
-330 255 l-26 36 0 -96 c0 -88 -2 -98 -30 -142 -30 -49 -45 -59 -45 -34 0 26
-30 46 -71 46 -32 0 -47 -7 -83 -40 -57 -53 -83 -52 -142 2 -78 72 -87 90 -94
197 -8 106 -29 166 -80 231 -36 46 -129 95 -159 85 -29 -9 -26 6 6 30 17 12
49 21 85 23 63 5 118 -16 170 -66 15 -14 30 -23 33 -20 7 6 -74 78 -87 78 -4
0 -8 30 -8 68 0 37 -4 72 -8 78 -4 6 -34 30 -67 54 -76 54 -150 125 -178 170
-12 19 -27 60 -33 90 -11 47 -12 50 -13 20z m187 -272 c26 -17 49 -33 51 -35
3 -2 -5 -13 -16 -26 -28 -31 -43 -61 -43 -90 0 -20 -9 -28 -45 -41 -25 -10
-54 -31 -66 -47 -11 -16 -25 -26 -31 -23 -15 9 -3 140 16 186 14 34 71 108 83
108 2 0 25 -14 51 -32z m90 -73 c7 -14 12 -48 12 -76 l0 -50 -37 6 c-58 10
-63 13 -63 35 0 26 16 57 43 88 26 28 31 28 45 -3z m548 -1139 c142 -66 215
-202 216 -405 0 -136 -6 -170 -51 -260 -57 -117 -199 -250 -349 -325 -100 -50
-110 -45 -12 7 136 72 244 159 167 136 -75 -23 -207 -34 -207 -16 0 5 -3 8 -6
4 -8 -8 -56 17 -74 38 -12 14 -15 14 -33 -2 -16 -15 -15 -11 5 22 66 105 108
232 123 365 3 30 10 80 16 110 5 30 13 100 18 156 10 107 29 156 73 181 33 18
57 16 114 -11z m874 -386 c0 -5 -2 -10 -4 -10 -3 0 -8 5 -11 10 -3 6 -1 10 4
10 6 0 11 -4 11 -10z m-1280 -501 c-66 -56 -216 -146 -226 -136 -2 2 17 14 44
27 71 36 144 84 176 119 16 17 32 28 35 25 3 -3 -10 -19 -29 -35z m85 -155
c-106 -40 -415 -73 -415 -45 0 9 44 41 57 41 4 0 -5 -9 -22 -20 l-30 -20 86 0
c81 0 258 28 311 50 13 5 30 9 38 9 8 0 -3 -7 -25 -15z m165 -499 c40 -20 60
-53 60 -95 0 -108 -164 -138 -215 -40 -51 98 52 188 155 135z"/>
<path d="M2701 3879 c-7 -23 -10 -43 -7 -47 3 -3 9 9 12 27 8 39 14 43 37 26
18 -13 18 -15 -3 -42 -24 -34 -30 -124 -10 -148 32 -38 80 8 80 75 0 16 3 30
8 30 10 0 78 -100 86 -127 7 -22 26 -32 26 -15 0 28 -188 262 -210 262 -4 0
-12 -18 -19 -41z m72 -54 c-5 -16 -33 -21 -33 -7 0 13 22 32 31 26 5 -2 6 -11
2 -19z m-5 -103 c9 9 12 8 12 -4 0 -26 -22 -33 -37 -13 -17 24 -17 46 1 23 10
-13 15 -15 24 -6z"/>
<path d="M3227 3850 c6 -73 -10 -113 -82 -214 -27 -38 -35 -57 -34 -90 1 -42
3 -39 14 26 3 21 21 55 42 80 64 76 90 177 64 243 -5 12 -6 -7 -4 -45z"/>
<path d="M2997 3738 c-4 -14 -9 -34 -13 -45 -3 -10 2 -5 11 10 9 16 15 36 13
45 -3 12 -6 9 -11 -10z"/>
<path d="M1700 3728 c-50 -25 -90 -84 -90 -131 0 -39 35 -104 68 -124 44 -27
92 -76 92 -92 -1 -36 -64 -88 -133 -109 -61 -19 -70 -20 -102 -6 -42 17 -114
18 -135 1 -37 -29 -60 -76 -60 -122 0 -43 4 -52 44 -91 27 -28 52 -44 67 -44
19 0 16 4 -18 19 -49 23 -73 55 -80 109 -13 96 75 156 176 121 90 -32 78 -179
-19 -230 -19 -11 -28 -19 -20 -19 8 0 38 14 65 30 67 40 118 40 188 1 37 -21
72 -32 123 -36 70 -7 72 -7 116 27 24 19 59 40 76 47 30 12 35 11 72 -13 22
-14 50 -26 62 -25 18 0 15 3 -12 12 -74 26 -104 129 -57 198 73 109 227 55
227 -80 0 -52 -21 -82 -75 -107 -40 -19 -45 -24 -25 -24 28 0 65 22 92 55 16
20 17 20 28 -10 24 -62 42 -92 95 -160 201 -257 219 -296 176 -391 -10 -23
-32 -53 -47 -68 -33 -30 -30 -32 15 -10 23 11 49 15 88 12 50 -4 54 -3 37 9
-11 9 -36 13 -61 11 -24 -2 -43 -3 -43 -3 0 1 9 18 20 40 48 93 16 175 -140
358 -72 85 -136 197 -126 222 8 23 38 15 52 -13 6 -13 17 -29 24 -35 7 -7 5 3
-5 22 l-17 34 26 -7 c14 -3 26 -2 26 3 0 12 -36 21 -85 21 l-40 0 -3 46 c-5
87 -62 144 -146 144 -26 0 -59 6 -74 14 -35 18 -122 111 -122 130 0 8 -4 16
-10 18 -17 6 -90 111 -90 130 0 48 -71 128 -112 128 -15 0 -8 -7 22 -23 75
-40 99 -115 59 -187 -35 -62 -124 -89 -187 -56 -116 60 -93 220 38 261 25 7
36 14 25 14 -12 1 -41 -9 -65 -21z m274 -232 c39 -59 130 -158 160 -174 19 -9
18 -12 -11 -45 -35 -40 -49 -99 -33 -141 10 -26 9 -28 -11 -23 -27 7 -81 -2
-74 -13 2 -4 17 -6 32 -3 26 3 26 3 9 -9 -106 -73 -129 -81 -199 -67 -64 12
-139 47 -131 61 5 8 -14 9 -59 6 -62 -5 -66 -4 -57 13 14 25 12 64 -4 104
l-15 34 55 21 c30 11 59 20 64 20 5 0 27 19 49 43 28 29 41 37 41 25 0 -9 5
-20 10 -23 24 -15 -17 88 -42 106 -5 3 15 11 42 18 52 13 103 54 115 91 8 26
16 21 59 -44z"/>
<path d="M2010 3405 c0 -8 4 -15 10 -15 5 0 7 7 4 15 -4 8 -8 15 -10 15 -2 0
-4 -7 -4 -15z"/>
<path d="M2691 3724 c0 -11 3 -14 6 -6 3 7 2 16 -1 19 -3 4 -6 -2 -5 -13z"/>
<path d="M3126 3692 c-5 -18 -5 -36 -2 -39 7 -7 19 43 13 59 -2 7 -7 -2 -11
-20z"/>
<path d="M2700 3692 c0 -21 44 -42 85 -40 l40 1 -40 4 c-22 3 -50 14 -62 25
-13 12 -23 16 -23 10z"/>
<path d="M2731 3507 c18 -15 29 -36 33 -65 13 -84 60 -156 74 -114 2 7 0 11
-5 10 -4 -2 -9 2 -11 7 -6 18 56 29 97 16 47 -13 120 -91 158 -164 13 -27 27
-47 30 -44 8 9 -44 98 -87 148 -55 64 -97 83 -169 74 -55 -6 -59 -5 -64 17 -4
13 -7 36 -7 51 0 25 2 27 21 16 36 -19 12 8 -36 41 -51 35 -72 39 -34 7z"/>
<path d="M2810 3491 c0 -5 9 -12 19 -16 11 -3 25 -13 33 -22 11 -14 10 -15
-11 -8 -15 4 -21 3 -17 -3 10 -17 151 -45 189 -38 49 9 102 47 103 74 1 19 1
20 -3 2 -5 -22 -59 -54 -109 -63 -44 -8 -102 8 -133 36 -32 31 -71 51 -71 38z"/>
<path d="M2697 3448 c8 -46 13 -48 13 -5 0 21 -4 37 -10 37 -5 0 -7 -14 -3
-32z"/>
<path d="M2105 3451 c39 -10 79 -21 90 -25 11 -3 0 3 -25 15 -25 12 -65 24
-90 26 -40 3 -37 1 25 -16z"/>
<path d="M2995 3460 c3 -5 8 -10 11 -10 2 0 4 5 4 10 0 6 -5 10 -11 10 -5 0
-7 -4 -4 -10z"/>
<path d="M2860 3253 c0 -12 77 -113 86 -113 3 0 -59 90 -83 119 -1 2 -3 -1 -3
-6z"/>
<path d="M945 3085 c-5 -2 -31 -6 -57 -10 -115 -15 -231 -174 -254 -347 -4
-27 -11 -51 -15 -54 -12 -7 -12 -144 0 -144 4 0 13 -40 20 -88 12 -98 52 -232
108 -362 45 -108 163 -345 199 -401 98 -156 300 -388 389 -448 57 -38 123 -61
178 -61 60 0 79 10 108 57 35 56 31 145 -10 226 -58 115 -190 241 -382 368
-135 89 -261 220 -321 334 -109 209 -142 473 -83 647 20 58 73 108 116 108 48
0 130 -48 189 -110 52 -54 148 -212 165 -270 4 -14 18 -47 30 -75 13 -27 41
-97 64 -155 43 -114 148 -359 160 -375 5 -5 27 -46 51 -90 99 -186 264 -351
431 -432 54 -27 98 -51 99 -54 0 -3 -48 -88 -106 -190 -159 -275 -170 -297
-199 -384 -33 -97 -66 -157 -100 -179 -13 -9 -36 -38 -49 -64 -13 -26 -45 -71
-70 -99 -75 -83 -85 -136 -36 -185 28 -28 35 -30 84 -26 35 3 81 18 129 41 46
23 102 41 144 47 63 9 71 8 116 -15 80 -41 164 -26 210 37 36 49 16 139 -38
174 -19 12 -23 22 -19 40 12 49 -6 97 -53 141 l-45 42 11 67 c8 55 24 91 91
207 44 77 79 142 77 144 -4 4 -91 -138 -147 -242 -29 -51 -34 -72 -37 -145 -3
-59 -1 -81 6 -70 8 12 14 11 37 -10 28 -27 54 -77 54 -108 0 -10 -7 -27 -15
-38 -15 -19 -15 -19 -34 3 -10 12 -22 41 -26 65 -7 36 -9 39 -12 17 -2 -15 3
-43 11 -63 17 -41 23 -34 -58 -65 -46 -18 -25 -22 24 -4 25 8 64 16 88 17 35
1 47 -4 62 -24 23 -31 32 -76 24 -118 -14 -69 -129 -96 -207 -49 -36 22 -41
23 -122 11 -47 -7 -89 -16 -95 -19 -6 -4 -10 6 -11 22 -1 27 -1 27 -13 -7 -18
-53 -81 -82 -164 -78 -72 5 -82 13 -82 72 0 32 10 53 53 110 29 39 70 94 90
122 20 28 46 58 57 65 13 8 41 63 69 134 49 123 109 249 140 294 22 32 145
248 180 316 26 49 26 53 27 270 0 258 11 322 79 460 31 65 67 117 130 188 47
53 89 97 93 97 4 1 25 17 47 36 37 33 38 34 9 20 -70 -34 -217 -200 -279 -313
-30 -56 -34 -58 -110 -53 -94 6 -235 90 -353 209 -46 47 -113 135 -179 235
-155 237 -263 377 -340 440 -78 65 -181 122 -238 131 -22 3 -49 8 -60 10 -11
1 -24 1 -30 0z m198 -68 c149 -79 231 -175 498 -585 77 -118 160 -207 263
-281 97 -70 191 -111 256 -111 l47 0 -18 -53 c-34 -100 -41 -182 -34 -375 5
-133 4 -191 -5 -212 l-12 -29 -56 25 c-140 62 -262 160 -366 294 -45 58 -126
192 -126 208 0 5 -6 15 -14 21 -13 11 -85 174 -179 406 -139 342 -177 415
-266 498 -100 94 -249 143 -301 99 -67 -56 -84 -73 -67 -68 9 3 -1 -12 -23
-33 -22 -21 -40 -46 -40 -56 0 -10 -10 -33 -21 -52 -15 -24 -24 -61 -30 -117
-7 -72 -7 -68 -4 39 3 94 9 135 28 191 31 89 40 106 85 156 62 68 130 91 247
81 45 -3 79 -15 138 -46z m-253 -101 c0 -2 -11 -11 -25 -20 -18 -12 -24 -13
-23 -4 4 16 48 38 48 24z m-69 -83 c-12 -20 -14 -14 -5 12 4 9 9 14 11 11 3
-2 0 -13 -6 -23z m-44 -125 c-3 -8 -6 -5 -6 6 -1 11 2 17 5 13 3 -3 4 -12 1
-19z m-10 -125 c-2 -21 -4 -4 -4 37 0 41 2 58 4 38 2 -21 2 -55 0 -75z m10
-90 c-3 -10 -5 -2 -5 17 0 19 2 27 5 18 2 -10 2 -26 0 -35z m-73 -228 c5 -22
5 -26 -3 -14 -12 18 -51 207 -50 241 0 12 11 -26 23 -87 13 -60 27 -123 30
-140z m149 -35 c15 -35 25 -66 23 -67 -4 -4 -40 79 -51 117 -13 42 1 18 28
-50z m-54 -205 c0 -5 -11 10 -24 35 -13 25 -24 50 -24 55 0 6 11 -10 24 -35
13 -25 24 -49 24 -55z m161 9 c0 -13 -32 20 -46 47 -23 45 -16 45 16 1 17 -23
30 -45 30 -48z m-16 -1 c4 -5 11 -8 14 -8 4 0 38 -31 76 -69 38 -37 108 -94
155 -124 192 -126 303 -224 376 -332 74 -108 84 -218 25 -283 -26 -29 -33 -32
-84 -30 -80 3 -152 42 -259 143 -91 86 -233 266 -294 374 -18 32 -32 60 -30
62 2 2 14 -14 26 -36 12 -22 23 -40 25 -40 6 0 -27 127 -41 160 -16 38 -27
142 -18 171 7 20 17 24 29 12z m-79 -143 c19 -38 33 -70 30 -70 -2 0 -21 32
-40 70 -19 39 -33 70 -30 70 2 0 21 -31 40 -70z"/>
<path d="M1225 2729 c4 -5 16 -9 27 -9 26 0 19 9 -11 15 -12 2 -19 0 -16 -6z"/>
<path d="M1503 2522 c17 -18 47 -26 47 -12 0 7 -45 30 -57 30 -3 0 1 -8 10
-18z"/>
<path d="M1754 2163 c4 -13 2 -24 -6 -29 -7 -4 -10 -4 -6 1 11 11 -11 35 -31
35 -14 0 -14 -2 -1 -10 8 -5 11 -10 5 -10 -5 0 1 -7 13 -16 12 -8 26 -13 31
-10 5 4 11 2 13 -3 1 -5 19 -12 38 -15 34 -7 34 -6 15 10 -16 14 -17 16 -2 11
24 -9 21 9 -5 27 -25 18 -42 21 -33 6 10 -16 -2 -12 -21 7 -16 16 -16 16 -10
-4z"/>
<path d="M1582 2038 c-6 -6 -12 -16 -12 -21 0 -5 7 -1 16 7 20 20 29 20 49 -1
16 -16 17 -15 13 3 -4 23 -47 31 -66 12z"/>
<path d="M1583 2003 c-14 -15 -23 -22 -19 -15 4 6 2 12 -3 12 -15 0 -14 -3 19
-60 17 -28 30 -54 30 -59 0 -4 7 -16 16 -27 8 -10 13 -13 9 -6 -4 7 1 12 13
12 31 0 45 25 38 65 -4 20 -11 33 -16 30 -5 -3 -7 3 -5 13 2 13 -7 27 -26 41
l-29 22 -27 -28z m79 -102 c3 -21 1 -28 -9 -24 -14 6 -16 14 -7 37 9 22 11 20
16 -13z"/>
<path d="M2141 1889 c0 -9 -10 -23 -20 -30 -11 -8 -22 -29 -25 -48 -2 -18 -9
-38 -15 -44 -19 -19 -12 -36 17 -43 15 -4 30 -12 34 -18 4 -6 8 20 8 58 0 61
-2 67 -17 62 -13 -4 -11 0 5 14 16 13 22 27 19 42 -2 13 -5 16 -6 7z m-21
-149 c0 -5 -5 -10 -11 -10 -5 0 -7 5 -4 10 3 6 8 10 11 10 2 0 4 -4 4 -10z"/>
<path d="M1769 1663 c-10 -11 -10 -14 -1 -9 7 4 12 2 12 -5 0 -6 8 -9 20 -6
11 3 20 0 20 -5 0 -6 6 -5 15 2 12 10 13 16 4 26 -16 19 -54 17 -70 -3z m61
-1 c0 -4 -9 -8 -20 -8 -11 0 -20 4 -20 8 0 4 9 8 20 8 11 0 20 -4 20 -8z"/>
<path d="M1981 1524 c13 -16 29 -19 29 -5 0 5 -9 11 -21 14 -16 4 -18 3 -8 -9z"/>
<path d="M2989 3022 c-2 -28 -1 -52 2 -52 12 0 19 59 10 82 -7 19 -9 13 -12
-30z"/>
<path d="M2903 3005 c0 -27 2 -38 4 -22 2 15 2 37 0 50 -2 12 -4 0 -4 -28z"/>
<path d="M2795 2410 c3 -5 8 -10 11 -10 2 0 4 5 4 10 0 6 -5 10 -11 10 -5 0
-7 -4 -4 -10z"/>
<path d="M2841 2355 c0 -5 6 -19 14 -29 8 -11 15 -15 15 -10 0 6 -7 19 -15 30
-8 10 -14 15 -14 9z"/>
<path d="M3110 1363 c0 -5 5 -15 10 -23 8 -12 10 -11 10 8 0 12 -4 22 -10 22
-5 0 -10 -3 -10 -7z"/>
<path d="M1960 880 c-15 -55 -7 -63 9 -9 7 22 10 43 7 46 -2 3 -10 -14 -16
-37z"/>
<path d="M2050 850 c-6 -12 -9 -24 -7 -27 3 -2 11 5 17 17 6 12 9 24 7 27 -3
2 -11 -5 -17 -17z"/>
<path d="M2011 749 c-11 -34 -19 -64 -17 -66 2 -2 13 24 25 58 11 34 19 64 17
66 -2 2 -13 -24 -25 -58z"/>
</g>
</svg>
